<svg width="1600" height="900" viewBox="0 0 1600 900" fill="none" xmlns="http://www.w3.org/2000/svg">
  <defs>
    <linearGradient id="bg" x1="56" y1="40" x2="1544" y2="860" gradientUnits="userSpaceOnUse">
      <stop stop-color="#F0E6D8"/>
      <stop offset="0.5" stop-color="#ECE8E1"/>
      <stop offset="1" stop-color="#DCE8E3"/>
    </linearGradient>
    <linearGradient id="panel" x1="112" y1="108" x2="1488" y2="792" gradientUnits="userSpaceOnUse">
      <stop stop-color="#FFF9F2"/>
      <stop offset="1" stop-color="#F8FCFA"/>
    </linearGradient>
    <linearGradient id="accent" x1="0" y1="0" x2="1" y2="1">
      <stop stop-color="#B75B2A"/>
      <stop offset="1" stop-color="#286E62"/>
    </linearGradient>
    <filter id="shadow" x="48" y="36" width="1504" height="828" filterUnits="userSpaceOnUse" color-interpolation-filters="sRGB">
      <feFlood flood-opacity="0" result="BackgroundImageFix"/>
      <feColorMatrix in="SourceAlpha" type="matrix" values="0 0 0 0 0 0 0 0 0 0 0 0 0 0 0 0 0 0 127 0" result="hardAlpha"/>
      <feOffset dy="20"/>
      <feGaussianBlur stdDeviation="22"/>
      <feComposite in2="hardAlpha" operator="out"/>
      <feColorMatrix type="matrix" values="0 0 0 0 0.121 0 0 0 0 0.117 0 0 0 0 0.101 0 0 0 0.14 0"/>
      <feBlend mode="normal" in2="BackgroundImageFix" result="effect1_dropShadow_0_1"/>
      <feBlend mode="normal" in="SourceGraphic" in2="effect1_dropShadow_0_1" result="shape"/>
    </filter>
    <style>
      .eyebrow { font: 700 22px "SF Pro Display","PingFang SC","Hiragino Sans GB","Microsoft YaHei",sans-serif; letter-spacing: 0.16em; }
      .title { font: 800 72px "SF Pro Display","PingFang SC","Hiragino Sans GB","Microsoft YaHei",sans-serif; }
      .subtitle { font: 500 28px "SF Pro Text","PingFang SC","Hiragino Sans GB","Microsoft YaHei",sans-serif; }
      .cardTag { font: 700 18px "SF Pro Display","PingFang SC","Hiragino Sans GB","Microsoft YaHei",sans-serif; }
      .cardTitle { font: 700 28px "SF Pro Display","PingFang SC","Hiragino Sans GB","Microsoft YaHei",sans-serif; }
      .cardBody { font: 500 21px "SF Pro Text","PingFang SC","Hiragino Sans GB","Microsoft YaHei",sans-serif; }
    </style>
  </defs>

  <rect width="1600" height="900" fill="#ECE4D8"/>
  <rect x="72" y="60" width="1456" height="780" rx="34" fill="url(#bg)" filter="url(#shadow)"/>
  <rect x="112" y="108" width="1376" height="684" rx="28" fill="url(#panel)" stroke="#E4D8C8" stroke-width="2"/>

  <circle cx="1324" cy="196" r="104" fill="#DCEBE5"/>
  <circle cx="1398" cy="284" r="48" fill="#EFC49F"/>
  <circle cx="260" cy="744" r="56" fill="#EFD7C0"/>
  <circle cx="326" cy="684" r="26" fill="#D2E4DD"/>

  <rect x="144" y="148" width="216" height="38" rx="19" fill="#1F2A25"/>
  <text x="168" y="173" class="eyebrow" fill="#F7F4EC">OPENSPEC</text>

  <text x="144" y="278" class="title" fill="#1F2A25">不是多写几份文档</text>
  <text x="144" y="362" class="title" fill="#1F2A25">而是给 AI 编程补上一层工程约束</text>

  <text x="148" y="432" class="subtitle" fill="#56635B">把 Proposal、Design、Spec、Tasks、Validate 和 Archive 串成同一轮 change，</text>
  <text x="148" y="470" class="subtitle" fill="#56635B">AI 才会从“会生成代码”变成“能参与软件工程”。</text>

  <rect x="144" y="548" width="406" height="182" rx="26" fill="#FFF1E6" stroke="#E9BE97" stroke-width="2"/>
  <rect x="574" y="548" width="406" height="182" rx="26" fill="#EDF7F3" stroke="#BCD7CC" stroke-width="2"/>
  <rect x="1004" y="548" width="340" height="182" rx="26" fill="#F6F2EA" stroke="#DED4C6" stroke-width="2"/>

  <rect x="172" y="574" width="118" height="30" rx="15" fill="#B75B2A"/>
  <text x="198" y="595" class="cardTag" fill="#FFF8F2">聊天式开发</text>
  <text x="172" y="644" class="cardTitle" fill="#A25123">局部很快，整体容易漂</text>
  <text x="172" y="684" class="cardBody" fill="#6B4A32">需求、设计和实现分散在多处，</text>
  <text x="172" y="714" class="cardBody" fill="#6B4A32">做得越多，历史越难对齐。</text>

  <rect x="602" y="574" width="116" height="30" rx="15" fill="#2F7C68"/>
  <text x="628" y="595" class="cardTag" fill="#F7FFFB">OpenSpec</text>
  <text x="602" y="644" class="cardTitle" fill="#245E4D">先对齐 change，再推进实现</text>
  <text x="602" y="684" class="cardBody" fill="#375449">边界先写清，行为先落字，</text>
  <text x="602" y="714" class="cardBody" fill="#375449">验证和归档一起进入闭环。</text>

  <rect x="1032" y="574" width="154" height="30" rx="15" fill="#2F2A24"/>
  <text x="1057" y="595" class="cardTag" fill="#FAF6EF">关键判断</text>
  <text x="1032" y="644" class="cardTitle" fill="#2F2A24">代码只是结果</text>
  <text x="1032" y="679" class="cardTitle" fill="#2F2A24">变更才是单位</text>
  <text x="1032" y="714" class="cardTitle" fill="#2F2A24">规格才是护栏</text>

  <rect x="1312" y="554" width="112" height="112" rx="28" fill="url(#accent)"/>
  <path d="M1350 598H1387C1405 598 1418 611 1418 629C1418 647 1405 660 1387 660H1350V598Z" fill="#FFF8F0"/>
  <path d="M1364 614V644" stroke="#2D302C" stroke-width="6" stroke-linecap="round"/>
  <path d="M1384 614V644" stroke="#2D302C" stroke-width="6" stroke-linecap="round"/>
  <path d="M1354 629H1394" stroke="#2D302C" stroke-width="6" stroke-linecap="round"/>
</svg>
