<svg width="1600" height="900" viewBox="0 0 1600 900" fill="none" xmlns="http://www.w3.org/2000/svg">
  <defs>
    <linearGradient id="bg" x1="84" y1="64" x2="1512" y2="836" gradientUnits="userSpaceOnUse">
      <stop stop-color="#F7EAD8"/>
      <stop offset="0.48" stop-color="#F3F0E8"/>
      <stop offset="1" stop-color="#DCEDE3"/>
    </linearGradient>
    <linearGradient id="hero" x1="112" y1="112" x2="1488" y2="788" gradientUnits="userSpaceOnUse">
      <stop stop-color="#FFF8EF"/>
      <stop offset="1" stop-color="#F5FBF7"/>
    </linearGradient>
    <filter id="shadow" x="52" y="42" width="1496" height="816" filterUnits="userSpaceOnUse" color-interpolation-filters="sRGB">
      <feFlood flood-opacity="0" result="BackgroundImageFix"/>
      <feColorMatrix in="SourceAlpha" type="matrix" values="0 0 0 0 0 0 0 0 0 0 0 0 0 0 0 0 0 0 127 0" result="hardAlpha"/>
      <feOffset dy="18"/>
      <feGaussianBlur stdDeviation="20"/>
      <feComposite in2="hardAlpha" operator="out"/>
      <feColorMatrix type="matrix" values="0 0 0 0 0.152941 0 0 0 0 0.133333 0 0 0 0 0.0980392 0 0 0 0.12 0"/>
      <feBlend mode="normal" in2="BackgroundImageFix" result="effect1_dropShadow_0_1"/>
      <feBlend mode="normal" in="SourceGraphic" in2="effect1_dropShadow_0_1" result="shape"/>
    </filter>
    <style>
      .eyebrow { font: 700 22px "SF Pro Display","PingFang SC","Hiragino Sans GB","Microsoft YaHei",sans-serif; letter-spacing: 0.14em; }
      .title { font: 800 74px "SF Pro Display","PingFang SC","Hiragino Sans GB","Microsoft YaHei",sans-serif; }
      .subtitle { font: 500 28px "SF Pro Text","PingFang SC","Hiragino Sans GB","Microsoft YaHei",sans-serif; }
      .cardTitle { font: 700 28px "SF Pro Display","PingFang SC","Hiragino Sans GB","Microsoft YaHei",sans-serif; }
      .cardBody { font: 500 22px "SF Pro Text","PingFang SC","Hiragino Sans GB","Microsoft YaHei",sans-serif; }
      .smallTag { font: 700 18px "SF Pro Text","PingFang SC","Hiragino Sans GB","Microsoft YaHei",sans-serif; }
    </style>
  </defs>

  <rect width="1600" height="900" fill="#EFE8DC"/>
  <rect x="72" y="60" width="1456" height="780" rx="34" fill="url(#bg)" filter="url(#shadow)"/>
  <rect x="112" y="108" width="1376" height="684" rx="28" fill="url(#hero)" stroke="#E9DDCC" stroke-width="2"/>

  <circle cx="1308" cy="198" r="94" fill="#E5F1EA"/>
  <circle cx="1380" cy="286" r="46" fill="#F2C9A3"/>
  <circle cx="248" cy="734" r="56" fill="#EFD9C0"/>
  <circle cx="310" cy="676" r="24" fill="#D9E9E0"/>

  <rect x="144" y="146" width="246" height="38" rx="19" fill="#1E2A24"/>
  <text x="168" y="171" class="eyebrow" fill="#F8F4EB">VIBE CODING</text>

  <text x="144" y="276" class="title" fill="#1F2A24">它不是“让 AI 替你写”</text>
  <text x="144" y="362" class="title" fill="#1F2A24">而是“你开始用工作流协作”</text>

  <text x="148" y="430" class="subtitle" fill="#56635B">为什么很多人第一周就走偏？</text>
  <text x="148" y="470" class="subtitle" fill="#56635B">因为把 Vibe Coding 用成了即时生成，而不是管理目标、结果和过程。</text>

  <rect x="144" y="548" width="404" height="184" rx="26" fill="#FFF3E6" stroke="#EDC39C" stroke-width="2"/>
  <rect x="574" y="548" width="404" height="184" rx="26" fill="#EEF7F1" stroke="#B8D8C5" stroke-width="2"/>
  <rect x="1004" y="548" width="340" height="184" rx="26" fill="#F7F4EC" stroke="#DDD4C6" stroke-width="2"/>

  <rect x="172" y="574" width="104" height="30" rx="15" fill="#C76128"/>
  <text x="196" y="595" class="smallTag" fill="#FFF8F3">误区</text>
  <text x="172" y="642" class="cardTitle" fill="#A65419">我提需求，AI 直接写完</text>
  <text x="172" y="683" class="cardBody" fill="#6D4A2D">目标模糊，边做边补，</text>
  <text x="172" y="714" class="cardBody" fill="#6D4A2D">结果常常越改越乱。</text>

  <rect x="602" y="574" width="104" height="30" rx="15" fill="#2E7A5C"/>
  <text x="626" y="595" class="smallTag" fill="#F7FFFA">正解</text>
  <text x="602" y="642" class="cardTitle" fill="#235E49">我定义目标，AI 参与流程</text>
  <text x="602" y="683" class="cardBody" fill="#355447">先结构，后实现，</text>
  <text x="602" y="714" class="cardBody" fill="#355447">再评审，再修正。</text>

  <rect x="1032" y="574" width="132" height="30" rx="15" fill="#342B21"/>
  <text x="1057" y="595" class="smallTag" fill="#FBF7EF">关键能力</text>
  <text x="1032" y="642" class="cardTitle" fill="#342B21">描述问题</text>
  <text x="1032" y="677" class="cardTitle" fill="#342B21">判断结果</text>
  <text x="1032" y="712" class="cardTitle" fill="#342B21">管理过程</text>

  <path d="M1362 618C1407 618 1432 574 1432 532C1432 490 1400 452 1354 452H1198" stroke="#8BA695" stroke-width="4" stroke-linecap="round"/>
  <circle cx="1196" cy="452" r="10" fill="#2E7A5C"/>
</svg>
